<svg xmlns="http://www.w3.org/2000/svg" width="24" height="24" viewBox="0 0 533.5 544.3">
  <path fill="#4285F4" d="M533.5 278.4c0-17.4-1.6-34.1-4.6-50.3H272v95.1h146.9c-6.4 34-25.5 62.8-54.2 82.1v68h87.6c51.4-47.3 81.2-117 81.2-194.9z"/>
  <path fill="#34A853" d="M272 544.3c73.6 0 135.2-24.5 180.3-66.4l-87.6-68c-24.3 16.3-55.4 25.9-92.7 25.9-71 0-131.1-47.9-152.6-112.1h-89v70.7C83.9 480.7 171.5 544.3 272 544.3z"/>
  <path fill="#FBBC05" d="M119.4 323.7c-10.3-30-10.3-62.3 0-92.3v-70.7h-89c-38.6 76.9-38.6 156.7 0 233.6l89-70.6z"/>
  <path fill="#EA4335" d="M272 107.6c39.9-.6 78 13.7 107.3 39.5l80.1-80.1C417.3 23.2 347.2-1.3 272 0 171.5 0 83.9 63.6 30.4 160.7l89 70.7C140.9 155.5 201 107.6 272 107.6z"/>
</svg>
